<svg xmlns="http://www.w3.org/2000/svg" viewBox="0 0 100 100">
  <!-- 主体车身 -->
  <path d="M15 55 L25 55 L30 40 L70 40 L80 55 L85 55 C87 55 88 56 88 58 L88 65 C88 67 87 68 85 68 L80 68 C80 73 76 77 71 77 C66 77 62 73 62 68 L38 68 C38 73 34 77 29 77 C24 77 20 73 20 68 L15 68 C13 68 12 67 12 65 L12 58 C12 56 13 55 15 55Z" fill="#FF6B6B"/>
  
  <!-- 车窗 -->
  <path d="M35 42 L45 30 L65 30 L70 42" fill="#FFE0E0"/>
  
  <!-- 轮子 -->
  <circle cx="29" cy="68" r="8" fill="#333"/>
  <circle cx="29" cy="68" r="4" fill="#666"/>
  <circle cx="71" cy="68" r="8" fill="#333"/>
  <circle cx="71" cy="68" r="4" fill="#666"/>
  
  <!-- 装饰线条 -->
  <line x1="30" y1="45" x2="70" y2="45" stroke="#FF8888" stroke-width="1"/>
</svg>
