<svg xmlns="http://www.w3.org/2000/svg" viewBox="0 0 100 100">
  <!-- 背景圆形 -->
  <circle cx="50" cy="50" r="45" fill="#FF7B7B"/>
  
  <!-- 房子轮廓 -->
  <path d="M30 55 L30 75 L70 75 L70 55 L50 40 Z" fill="#FFB6B6"/>
  
  <!-- 门 -->
  <rect x="45" y="60" width="10" height="15" fill="#FF9393"/>
  
  <!-- 大爱心 -->
  <path d="M50 30 C50 30 45 25 40 25 C35 25 30 30 30 35 C30 45 50 55 50 55 C50 55 70 45 70 35 C70 30 65 25 60 25 C55 25 50 30 50 30 Z" fill="#FFE0E0"/>
  
  <!-- 小装饰爱心 -->
  <path d="M25 60 C25 60 23 58 21 58 C19 58 17 60 17 62 C17 65 25 70 25 70 C25 70 33 65 33 62 C33 60 31 58 29 58 C27 58 25 60 25 60 Z" fill="#FFB6B6"/>
  
  <path d="M75 60 C75 60 73 58 71 58 C69 58 67 60 67 62 C67 65 75 70 75 70 C75 70 83 65 83 62 C83 60 81 58 79 58 C77 58 75 60 75 60 Z" fill="#FFB6B6"/>
</svg>
