<svg xmlns="http://www.w3.org/2000/svg" viewBox="0 0 900 300">
  <!-- Definitions -->
  <defs>
    <linearGradient id="bg-gradient" x1="0%" y1="0%" x2="100%" y2="100%">
      <stop offset="0%" style="stop-color:#0a1220" />
      <stop offset="100%" style="stop-color:#0f2543" />
    </linearGradient>
    
    <filter id="glow">
      <feGaussianBlur stdDeviation="1.5" result="coloredBlur"/>
      <feMerge>
        <feMergeNode in="coloredBlur"/>
        <feMergeNode in="SourceGraphic"/>
      </feMerge>
    </filter>

    <!-- Moving gradient for subtle animation -->
    <linearGradient id="shine" x1="0%" y1="0%" x2="100%" y2="0%">
      <stop offset="0%" style="stop-color:#4FC3F7;stop-opacity:0" />
      <stop offset="50%" style="stop-color:#4FC3F7;stop-opacity:0.1" />
      <stop offset="100%" style="stop-color:#4FC3F7;stop-opacity:0" />
      <animate attributeName="x1" values="-100%;0%;100%" dur="3s" repeatCount="indefinite" />
      <animate attributeName="x2" values="0%;100%;200%" dur="3s" repeatCount="indefinite" />
    </linearGradient>
  </defs>

  <!-- Background -->
  <rect width="900" height="300" fill="url(#bg-gradient)" />
  <rect width="900" height="300" fill="url(#shine)" />
  
  <!-- Tech grid -->
  <g stroke="#ffffff08" stroke-width="0.5">
    <path d="M0 30 L900 30 M0 60 L900 60 M0 90 L900 90 M0 120 L900 120 
             M0 150 L900 150 M0 180 L900 180 M0 210 L900 210 M0 240 L900 240 
             M0 270 L900 270" />
    <path d="M30 0 L30 300 M60 0 L60 300 M90 0 L90 300 M120 0 L120 300 
             M150 0 L150 300 M180 0 L180 300 ... M840 0 L840 300 M870 0 L870 300" />
  </g>

  <!-- Main title with glow -->
  <g filter="url(#glow)" text-anchor="middle" font-family="Arial, sans-serif">
    <text x="450" y="120" font-size="40" fill="white" font-weight="bold">
      程序仅供已签约达人使用
    </text>
    <text x="450" y="180" font-size="32" fill="#4FC3F7">
      非对外开放
    </text>
  </g>

  <!-- Left decorative circuits -->
  <g stroke="#4FC3F7" stroke-width="1.5" fill="none" filter="url(#glow)">
    <!-- Animated path 1 -->
    <path d="M50 30 L120 30 L120 90">
      <animate attributeName="stroke-dashoffset" 
               values="200;0;200" 
               dur="4s" 
               repeatCount="indefinite"/>
      <animate attributeName="stroke-dasharray" 
               values="5,5;5,5;5,5" 
               dur="4s" 
               repeatCount="indefinite"/>
    </path>
    <circle cx="50" cy="30" r="3" fill="#4FC3F7">
      <animate attributeName="r" 
               values="3;4;3" 
               dur="2s" 
               repeatCount="indefinite"/>
    </circle>
  </g>

  <!-- Right decorative circuits -->
  <g stroke="#4FC3F7" stroke-width="1.5" fill="none" filter="url(#glow)">
    <path d="M850 270 L780 270 L780 210">
      <animate attributeName="stroke-dashoffset" 
               values="0;200;0" 
               dur="4s" 
               repeatCount="indefinite"/>
      <animate attributeName="stroke-dasharray" 
               values="5,5;5,5;5,5" 
               dur="4s" 
               repeatCount="indefinite"/>
    </path>
    <circle cx="850" cy="270" r="3" fill="#4FC3F7">
      <animate attributeName="r" 
               values="3;4;3" 
               dur="2s" 
               repeatCount="indefinite"
               begin="1s"/>
    </circle>
  </g>

  <!-- Key icon with animation -->
  <g transform="translate(280,150)">
    <circle cx="0" cy="0" r="25" fill="#4FC3F7" opacity="0.1"/>
    <path d="M-10 0 a10 10 0 1 0 0 -1 L0 0 L0 10 M5 5 L5 0" 
          stroke="#4FC3F7" 
          stroke-width="2" 
          fill="none">
      <animate attributeName="opacity"
               values="0.5;1;0.5"
               dur="2s"
               repeatCount="indefinite"/>
    </path>
  </g>

  <!-- Lock icon with animation -->
  <g transform="translate(620,150)">
    <circle cx="0" cy="0" r="25" fill="#4FC3F7" opacity="0.1"/>
    <path d="M-15 0 h30 v20 h-30 v-20 M-7 0 v-10 a7 7 0 0 1 14 0 v10" 
          stroke="#4FC3F7" 
          stroke-width="2" 
          fill="none">
      <animate attributeName="opacity"
               values="0.5;1;0.5"
               dur="2s"
               repeatCount="indefinite"
               begin="1s"/>
    </path>
  </g>

  <!-- Additional decorative elements -->
  <g stroke="#4FC3F7" stroke-width="1" fill="none">
    <!-- Left pulsing point -->
    <circle cx="100" cy="40" r="2" fill="#4FC3F7" opacity="0.5">
      <animate attributeName="r" 
               values="2;3;2" 
               dur="2s" 
               repeatCount="indefinite"/>
    </circle>
    <!-- Right pulsing point -->
    <circle cx="800" cy="240" r="2" fill="#4FC3F7" opacity="0.5">
      <animate attributeName="r" 
               values="2;3;2" 
               dur="2s" 
               repeatCount="indefinite"
               begin="1s"/>
    </circle>
  </g>
</svg>
